<svg xmlns="http://www.w3.org/2000/svg" viewBox="0 0 841.9 595.3" className="hack-home-logo">
 <g fill="#61DAFB">
 <path d="M666.3 296.5c0-32.5-40.7-63.3-103.1-82.4 14.4-63.6 8-114.2-20.2-130.4-6.5-3.8-14.1-5.6-22.4-5.6v22.3c4.6 0 8.3.9 11.4 2.6 13.6 7.8 19.5 37.5 14.9 75.7-1.1 9.4-2.9 19.3-5.1 29.4-19.6-4.8-41-8.5-63.5-10.9-13.5-18.5-27.5-35.3-41.6-50 32.6-30.3 63.2-46.9 84-46.9V78c-27.5 0-63.5 19.6-99.9 53.6-36.4-33.8-72.4-53.2-99.9-53.2v22.3c20.7 0 51.4 16.5 84 46.6-14 14.7-28 31.4-41.3 49.9-22.6 2.4-44 6.1-63.6 11-2.3-10-4-19.7-5.2-29-4.7-38.2 1.1-67.9 14.6-75.8 3-1.8 6.9-2.6 11.5-2.6V78.5c-8.4 0-16 1.8-22.6 5.6-28.1 16.2-34.4 66.7-19.9 130.1-62.2 19.2-102.7 49.9-102.7 82.3 0 32.5 40.7 63.3 103.1 82.4-14.4 63.6-8 114.2 20.2 130.4 6.5 3.8 14.1 5.6 22.5 5.6 27.5 0 63.5-19.6 99.9-53.6 36.4 33.8 72.4 53.2 99.9 53.2 8.4 0 16-1.8 22.6-5.6 28.1-16.2 34.4-66.7 19.9-130.1 62-19.1 102.5-49.9 102.5-82.3zm-130.2-66.7c-3.7 12.9-8.3 26.2-13.5 39.5-4.1-8-8.4-16-13.1-24-4.6-8-9.5-15.8-14.4-23.4 14.2 2.1 27.9 4.7 41 7.9zm-45.8 106.5c-7.8 13.5-15.8 26.3-24.1 38.2-14.9 1.3-30 2-45.2 2-15.1 0-30.2-.7-45-1.9-8.3-11.9-16.4-24.6-24.2-38-7.6-13.1-14.5-26.4-20.8-39.8 6.2-13.4 13.2-26.8 20.7-39.9 7.8-13.5 15.8-26.3 24.1-38.2 14.9-1.3 30-2 45.2-2 15.1 0 30.2.7 45 1.9 8.3 11.9 16.4 24.6 24.2 38 7.6 13.1 14.5 26.4 20.8 39.8-6.3 13.4-13.2 26.8-20.7 39.9zm32.3-13c5.4 13.4 10 26.8 13.8 39.8-13.1 3.2-26.9 5.9-41.2 8 4.9-7.7 9.8-15.6 14.4-23.7 4.6-8 8.9-16.1 13-24.1zM421.2 430c-9.3-9.6-18.6-20.3-27.8-32 9 .4 18.2.7 27.5.7 9.4 0 18.7-.2 27.8-.7-9 11.7-18.3 22.4-27.5 32zm-74.4-58.9c-14.2-2.1-27.9-4.7-41-7.9 3.7-12.9 8.3-26.2 13.5-39.5 4.1 8 8.4 16 13.1 24 4.7 8 9.5 15.8 14.4 23.4zM420.7 163c9.3 9.6 18.6 20.3 27.8 32-9-.4-18.2-.7-27.5-.7-9.4 0-18.7.2-27.8.7 9-11.7 18.3-22.4 27.5-32zm-74 58.9c-4.9 7.7-9.8 15.6-14.4 23.7-4.6 8-8.9 16-13 24-5.4-13.4-10-26.8-13.8-39.8 13.1-3.1 26.9-5.8 41.2-7.9zm-90.5 125.2c-35.4-15.1-58.3-34.9-58.3-50.6 0-15.7 22.9-35.6 58.3-50.6 8.6-3.7 18-7 27.7-10.1 5.7 19.6 13.2 40 22.5 60.9-9.2 20.8-16.6 41.1-22.2 60.6-9.9-3.1-19.3-6.5-28-10.2zM310 490c-13.6-7.8-19.5-37.5-14.9-75.7 1.1-9.4 2.9-19.3 5.1-29.4 19.6 4.8 41 8.5 63.5 10.9 13.5 18.5 27.5 35.3 41.6 50-32.6 30.3-63.2 46.9-84 46.9-4.5-.1-8.3-1-11.3-2.7zm237.2-76.2c4.7 38.2-1.1 67.9-14.6 75.8-3 1.8-6.9 2.6-11.5 2.6-20.7 0-51.4-16.5-84-46.6 14-14.7 28-31.4 41.3-49.9 22.6-2.4 44-6.1 63.6-11 2.3 10.1 4.1 19.8 5.2 29.1zm38.5-66.7c-8.6 3.7-18 7-27.7 10.1-5.7-19.6-13.2-40-22.5-60.9 9.2-20.8 16.6-41.1 22.2-60.6 9.9 3.1 19.3 6.5 28.1 10.2 35.4 15.1 58.3 34.9 58.3 50.6-.1 15.7-23 35.6-58.4 50.6zM320.8 78.4z"/>
 <circle cx="420.9" cy="296.5" r="45.7"/>
 <path d="M520.5 78.1z"/></g>
</svg>


<img className="hack-home-logo" src={hacklogo} alt="hack-logo"/>


<svg xmlns="http://www.w3.org/2000/svg" version="1.1" className="hack-home-logo">
<path d="M0 0 C0 87.45 0 174.9 0 265 C41.58 265 83.16 265 126 265 C125.01302181 237.69573074 125.01302181 237.69573074 123.74780273 210.40405273 C122.91247945 183.13064954 122.91247945 183.13064954 128.45391846 176.70147705 C133.99681914 171.43631214 140.9891824 168.41328194 148.1622467 166.0282135 C151.48233651 164.92775306 151.48233651 164.92775306 156 162 C178.44 162 200.88 162 224 162 C224.33 294.66 224.66 427.32 225 564 C245.17302108 552.79572204 245.17302108 552.79572204 265 541 C268.74023038 538.85321023 272.48412155 536.72508755 276.25 534.625 C283.07965977 530.79128136 289.88737106 526.93095221 296.625 522.9375 C303.77029627 518.70241976 310.97416545 514.57622534 318.19262695 510.46728516 C324.36806 506.94671647 330.5117921 503.37709962 336.6171875 499.73632812 C344.00505533 495.35223246 351.50436897 491.21629246 359 487 C359.33 439.48 359.66 391.96 360 343 C370.89 343 381.78 343 393 343 C393.29359995 364.24482261 393.53300408 385.48799995 393.67355824 406.73433685 C393.74055835 416.5996723 393.83187551 426.46365681 393.98071289 436.328125 C394.11039857 444.92738832 394.19418113 453.52567335 394.22315043 462.12588739 C394.2400833 466.67916653 394.27978293 471.22964744 394.37449074 475.7820282 C394.46298892 480.07082347 394.48990806 484.3556802 394.47039986 488.64530182 C394.47396591 490.21601565 394.49969667 491.78686596 394.54967117 493.35678864 C394.69428758 498.13572983 394.60445983 502.42923863 393 507 C389.05141413 510.75452137 384.9668891 512.74374653 380 515 C377.7868212 516.21736083 375.62330972 517.50172847 373.44921875 518.7890625 C371.19637346 520.06957672 368.94243321 521.34816611 366.6875 522.625 C364.21390363 524.0309032 361.74154681 525.43897565 359.26953125 526.84765625 C358.65392334 527.19833664 358.03831543 527.54901703 357.40405273 527.9103241 C351.53835699 531.25562191 345.70300524 534.65199438 339.875 538.0625 C328.3713931 544.79228681 316.83076481 551.45655825 305.28222656 558.10888672 C299.85340058 561.23680148 294.42680719 564.36858448 289 567.5 C286.83334417 568.75001879 284.6666775 570.00001878 282.5 571.25 C280.89125 572.178125 280.89125 572.178125 279.25 573.125 C269.5 578.75 269.5 578.75 266.24951172 580.62524414 C264.08442929 581.87435518 261.91939018 583.12354129 259.75439453 584.37280273 C254.31384294 587.51202309 248.87252784 590.64990563 243.4296875 593.78515625 C231.59874052 600.60221524 219.78147506 607.44113336 208.00146484 614.34594727 C207.08187988 614.88405029 206.16229492 615.42215332 205.21484375 615.9765625 C204.42198975 616.44143066 203.62913574 616.90629883 202.81225586 617.38525391 C174.41268741 633.69176886 184.85351187 624 126 624 C126 531.27 126 438.54 126 343 C84.42 343 42.84 343 0 343 C0.94820775 375.28441854 0.94820775 375.28441854 2.16210938 407.55908203 C2.96590063 439.73062329 2.96590063 439.73062329 -2.3203125 446.5032959 C-7.78278415 451.54317542 -13.86242308 454.26260016 -21.02600098 456.06808472 C-24.83123864 457.14408246 -24.83123864 457.14408246 -31 461 C-53.11 461 -75.22 461 -98 461 C-98.33 328.34 -98.66 195.68 -99 59 C-118.09695027 69.51411681 -118.09695027 69.51411681 -136.81640625 80.5 C-142.76812587 84.09464849 -148.83291385 87.49785997 -154.875 90.9375 C-166.28704693 97.4359023 -166.28704693 97.4359023 -177.625 104.0625 C-195.19871231 114.46430977 -212.94956707 124.56868079 -230.69018555 134.68237305 C-231.45242432 135.11718994 -232.21466309 135.55200684 -233 136 C-234.18435638 136.40517349 -235.36871277 136.81034698 -236.58895874 137.22779846 C-238.54795985 138.24291663 -238.54795985 138.24291663 -240 140 C-241.10559114 144.51347976 -240.94345619 149.05396795 -240.88647461 153.67285156 C-240.89436388 155.09216255 -240.90532515 156.5114593 -240.91912842 157.9307251 C-240.94787462 161.78200977 -240.93361313 165.63208026 -240.91168666 169.48336506 C-240.89606386 173.50867881 -240.91991177 177.53375291 -240.93959045 181.559021 C-240.97084419 189.18054455 -240.96654979 196.80161795 -240.94951588 204.42316985 C-240.93185111 213.10033619 -240.95376633 221.77726091 -240.97902286 230.45439196 C-241.03008751 248.30309741 -241.0261683 266.15122915 -241 284 C-251.89 284 -262.78 284 -274 284 C-274.29359995 262.75517739 -274.53300408 241.51200005 -274.67355824 220.26566315 C-274.74055835 210.4003277 -274.83187551 200.53634319 -274.98071289 190.671875 C-275.11039857 182.07261168 -275.19418113 173.47432665 -275.22315043 164.87411261 C-275.2400833 160.32083347 -275.27978293 155.77035256 -275.37449074 151.2179718 C-275.46298892 146.92917653 -275.48990806 142.6443198 -275.47039986 138.35469818 C-275.47396591 136.78398435 -275.49969667 135.21313404 -275.54967117 133.64321136 C-275.69428921 128.86421633 -275.60648055 124.57015078 -274 120 C-270.04670752 116.25244568 -265.96706 114.25299963 -261 112 C-258.97363259 110.84244909 -256.95719172 109.66711122 -254.95703125 108.46484375 C-252.90995526 107.28714651 -250.86174178 106.11142462 -248.8125 104.9375 C-247.10957218 103.95848887 -245.4066462 102.97947453 -243.7038269 102.00027466 C-241.95604539 100.99552701 -240.20779404 99.99160086 -238.45947266 98.98779297 C-232.96860763 95.8327737 -227.48452655 92.66602037 -222 89.5 C-219.83336859 88.24993888 -217.66670186 86.999939 -215.5 85.75 C-214.4275 85.13125 -213.355 84.5125 -212.25 83.875 C-176.5 63.25 -176.5 63.25 -173.24951172 61.37475586 C-171.08442929 60.12564482 -168.91939018 58.87645871 -166.75439453 57.62719727 C-161.31384294 54.48797691 -155.87252784 51.35009437 -150.4296875 48.21484375 C-135.92501605 39.8576832 -121.44828358 31.4542655 -107 23 C-106.40112976 22.64965698 -105.80225952 22.29931396 -105.1852417 21.93835449 C-101.3025636 19.66691706 -97.4204433 17.39452998 -93.53897095 15.12103271 C-92.28414944 14.38607069 -91.02924907 13.65124331 -89.77426147 12.91656494 C-88.00803386 11.88243522 -86.24224119 10.84756661 -84.4765625 9.8125 C-82.9618335 8.92498047 -82.9618335 8.92498047 -81.41650391 8.01953125 C-50.31595002 -10.36433196 -66.12976507 0 0 0 Z " fill="#008CE5" transform="translate(441,187)"/>
<path d="M0 0 C3.78518732 1.4160506 7.19749321 3.15421065 10.69921875 5.16796875 C11.81264648 5.80621582 12.92607422 6.44446289 14.07324219 7.10205078 C15.27804914 7.79710633 16.48280029 8.4922586 17.6875 9.1875 C18.94288672 9.90894749 20.19842292 10.63013494 21.45410156 11.35107422 C24.68120292 13.2050294 27.90596414 15.06301465 31.13006592 16.92218018 C32.90920925 17.94766871 34.68904049 18.97194872 36.46923828 19.99560547 C48.99397142 27.19764978 61.49177714 34.44453711 73.96630859 41.7331543 C84.52647084 47.8994513 95.12142546 54.00505039 105.71777344 60.10888672 C111.14659942 63.23680148 116.57319281 66.36858448 122 69.5 C124.16665583 70.75001879 126.3333225 72.00001878 128.5 73.25 C148 84.5 148 84.5 167.5 95.75 C168.57266113 96.36883057 169.64532227 96.98766113 170.75048828 97.62524414 C172.91557071 98.87435518 175.08060982 100.12354129 177.24560547 101.37280273 C182.68615706 104.51202309 188.12747216 107.64990563 193.5703125 110.78515625 C205.0544882 117.40222892 216.52196894 124.04633977 227.96582031 130.73291016 C238.52620282 136.89919054 249.12126766 143.0049595 259.71777344 149.10888672 C266.2235961 152.8573323 272.72644083 156.61094181 279.22973633 160.36376953 C284.75737281 163.55328795 290.28599381 166.74107821 295.81640625 169.92578125 C305.58011894 175.54975836 315.34303524 181.17477593 325.0625 186.875 C326.11642944 187.49145386 326.11642944 187.49145386 327.19165039 188.12036133 C331.87952283 190.87952283 331.87952283 190.87952283 333 192 C333.09688731 194.11360317 333.12186842 196.2305067 333.12025452 198.34632874 C333.12153615 199.35216425 333.12153615 199.35216425 333.12284368 200.37831968 C333.12450037 202.64164398 333.11897407 204.90489534 333.11352539 207.16821289 C333.11324353 208.78410338 333.11340122 210.39999399 333.1139679 212.0158844 C333.11425593 216.4165224 333.10835829 220.81713339 333.10139394 225.21776509 C333.09516134 229.8115521 333.09455668 234.40533966 333.09336853 238.99913025 C333.09025494 247.70434771 333.08204117 256.40955268 333.07201904 265.11476463 C333.06085877 275.02269918 333.05534767 284.93063431 333.05032361 294.83857358 C333.03985858 315.22572425 333.02151276 335.61285779 333 356 C322.11 356 311.22 356 300 356 C299.505 284.72 299.505 284.72 299 212 C290.09 207.05 281.18 202.1 272 197 C267.71 194.36 263.42 191.72 259 189 C254.88577555 186.66343102 250.76683433 184.34833441 246.625 182.0625 C239.30353399 177.99238718 232.02534557 173.89052199 224.87133789 169.53222656 C217.71640839 165.18875885 210.44532539 161.04583438 203.19018555 156.87280273 C195.56752904 152.48655691 187.96527704 148.06700957 180.375 143.625 C173.16974125 139.41048254 165.94013552 135.25024129 158.65063477 131.18334961 C153.28706703 128.18305832 147.99400729 125.07038023 142.70532227 121.94042969 C137.00130449 118.57166588 131.25706698 115.27714786 125.5 112 C119.13922064 108.37848823 112.79968452 104.72680658 106.5 101 C100.34450786 97.35931825 94.15242174 93.78824099 87.9375 90.25 C80.36941054 85.94036455 72.83081829 81.58338267 65.3125 77.1875 C56.93096046 72.28749179 48.53612043 67.41156845 40.125 62.5625 C39.0632959 61.95027588 38.0015918 61.33805176 36.90771484 60.70727539 C31.76507505 57.74299116 26.62084002 54.78150224 21.47442627 51.82377625 C19.04665732 50.42818529 16.61956752 49.03141585 14.19256592 47.63449097 C12.46581312 46.64128534 10.73804168 45.64985135 9.01025391 44.65844727 C7.97433105 44.06217529 6.9384082 43.46590332 5.87109375 42.8515625 C4.95255615 42.32385254 4.03401855 41.79614258 3.08764648 41.25244141 C1 40 1 40 0 39 C-0.08865208 36.1156618 -0.11521296 33.25537842 -0.09765625 30.37109375 C-0.0962413 29.50686295 -0.09482635 28.64263214 -0.09336853 27.75221252 C-0.08775239 24.98060708 -0.07519719 22.2090812 -0.0625 19.4375 C-0.05748708 17.5631522 -0.05292381 15.68880315 -0.04882812 13.81445312 C-0.03777772 9.20960456 -0.0205023 4.60481579 0 0 Z " fill="#0081D1" transform="translate(501,115)"/>
<path d="M0 0 C10.89 0 21.78 0 33 0 C33.33 47.52 33.66 95.04 34 144 C42.91 148.95 51.82 153.9 61 159 C71.25 165.125 71.25 165.125 76.03515625 168.03125 C82.48833484 171.9231892 89.06663423 175.59156015 95.63671875 179.28125 C102.06950896 182.89752125 108.45459817 186.58286506 114.80517578 190.34130859 C120.65357524 193.80243568 126.53140405 197.21067397 132.41625977 200.609375 C137.97797799 203.823735 143.52696973 207.05929746 149.07177734 210.30273438 C157.46018732 215.2087908 165.86122967 220.08110685 174.34765625 224.81567383 C179.71177253 227.81633049 185.00542668 230.92928479 190.29467773 234.05957031 C195.99869551 237.42833412 201.74293302 240.72285214 207.5 244 C213.86077936 247.62151177 220.20031548 251.27319342 226.5 255 C232.65549214 258.64068175 238.84757826 262.21175901 245.0625 265.75 C252.63058992 270.05963571 260.16916093 274.41665227 267.6875 278.8125 C276.17407071 283.7734352 284.67274899 288.71257115 293.1875 293.625 C294.26572021 294.24713379 295.34394043 294.86926758 296.45483398 295.51025391 C301.66157877 298.5110712 306.87388071 301.5015756 312.09765625 304.47265625 C313.05325439 305.01647949 314.00885254 305.56030273 314.9934082 306.12060547 C316.7706971 307.13084727 318.54909886 308.13913497 320.32885742 309.14501953 C321.12267822 309.59603027 321.91649902 310.04704102 322.734375 310.51171875 C323.41725586 310.89803467 324.10013672 311.28435059 324.80371094 311.68237305 C325.52848633 312.11718994 326.25326172 312.55200684 327 313 C328.06589355 313.52730713 329.13178711 314.05461426 330.22998047 314.59790039 C333.20194758 317.17512447 333.41054721 317.39407529 333.68115234 321.03417969 C333.68020618 322.66372029 333.64651693 324.29346055 333.5859375 325.921875 C333.57744781 326.78186096 333.56895813 327.64184692 333.56021118 328.52789307 C333.52667054 331.26987962 333.4513951 334.00890538 333.375 336.75 C333.34490102 338.61063455 333.31752509 340.47131529 333.29296875 342.33203125 C333.2268776 346.88915852 333.1233553 351.44407766 333 356 C329.19037936 354.575794 325.75596032 352.82091117 322.23046875 350.796875 C321.10688965 350.15355225 319.98331055 349.51022949 318.82568359 348.84741211 C317.61288279 348.14840128 316.40015681 347.44926061 315.1875 346.75 C313.92540022 346.0252852 312.66319169 345.30075976 311.40087891 344.57641602 C302.55723637 339.49625437 293.74132033 334.36874397 284.93774414 329.21948242 C274.41255252 323.06376359 263.84778019 316.97721107 253.28222656 310.89111328 C247.85340058 307.76319852 242.42680719 304.63141552 237 301.5 C234.83334417 300.24998121 232.6666775 298.99998122 230.5 297.75 C217.5 290.25 204.5 282.75 191.5 275.25 C190.42733887 274.63116943 189.35467773 274.01233887 188.24951172 273.37475586 C186.08442929 272.12564482 183.91939018 270.87645871 181.75439453 269.62719727 C176.31384294 266.48797691 170.87252784 263.35009437 165.4296875 260.21484375 C153.9455118 253.59777108 142.47803106 246.95366023 131.03417969 240.26708984 C120.47379718 234.10080946 109.87873234 227.9950405 99.28222656 221.89111328 C93.85340058 218.76319852 88.42680719 215.63141552 83 212.5 C80.83334417 211.24998121 78.6666775 209.99998122 76.5 208.75 C70 205 70 205 63.5 201.25 C62.4267749 200.63084717 61.3535498 200.01169434 60.24780273 199.3737793 C58.08840605 198.1279423 55.92906331 196.88201182 53.76977539 195.63598633 C48.24232403 192.44651047 42.71384879 189.25883115 37.18359375 186.07421875 C27.41988106 180.45024164 17.65696476 174.82522407 7.9375 169.125 C7.23488037 168.71403076 6.53226074 168.30306152 5.80834961 167.87963867 C1.12047717 165.12047717 1.12047717 165.12047717 0 164 C-0.09688731 161.88639683 -0.12186842 159.7694933 -0.12025452 157.65367126 C-0.12110894 156.98311425 -0.12196337 156.31255724 -0.12284368 155.62168032 C-0.12450037 153.35835602 -0.11897407 151.09510466 -0.11352539 148.83178711 C-0.11324353 147.21589662 -0.11340122 145.60000601 -0.1139679 143.9841156 C-0.11425593 139.5834776 -0.10835829 135.18286661 -0.10139394 130.78223491 C-0.09516134 126.1884479 -0.09455668 121.59466034 -0.09336853 117.00086975 C-0.09025494 108.29565229 -0.08204117 99.59044732 -0.07201904 90.88523537 C-0.06085877 80.97730082 -0.05534767 71.06936569 -0.05032361 61.16142642 C-0.03985858 40.77427575 -0.02151276 20.38714221 0 0 Z " fill="#0081D1" transform="translate(167,530)"/>
<path d="M0 0 C0 133.65 0 267.3 0 405 C-5.94 408.3 -11.88 411.6 -18 415 C-23.31450546 418.27269485 -23.31450546 418.27269485 -28.59375 421.6015625 C-31 423 -31 423 -33 423 C-33 289.68 -33 156.36 -33 19 C-54.45 19 -75.9 19 -98 19 C-95.34737947 16.34737947 -93.26096129 14.82961871 -90.0703125 12.96875 C-89.10996094 12.40542969 -88.14960937 11.84210938 -87.16015625 11.26171875 C-86.15855469 10.68035156 -85.15695312 10.09898437 -84.125 9.5 C-82.14841542 8.34378775 -80.17185221 7.18753896 -78.1953125 6.03125 C-76.88071045 5.26651367 -76.88071045 5.26651367 -75.53955078 4.48632812 C-53.76979496 -8.25490178 -25.22421868 0 0 0 Z " fill="#0076BF" transform="translate(665,349)"/>
<path d="M0 0 C0 87.45 0 174.9 0 265 C41.58 265 83.16 265 126 265 C126 271.27 126 277.54 126 284 C73.53 284 21.06 284 -33 284 C-33 196.55 -33 109.1 -33 19 C-54.12 19 -75.24 19 -97 19 C-97 18.34 -97 17.68 -97 17 C-94.8762207 15.53540039 -94.8762207 15.53540039 -91.92578125 13.84765625 C-90.86552734 13.23599609 -89.80527344 12.62433594 -88.71289062 11.99414062 C-87.59076172 11.35669922 -86.46863281 10.71925781 -85.3125 10.0625 C-83.1210451 8.80347009 -80.9296372 7.54435837 -78.73828125 6.28515625 C-77.75899658 5.72707275 -76.77971191 5.16898926 -75.77075195 4.59399414 C-53.83794144 -8.02379772 -25.30329718 0 0 0 Z " fill="#0075BE" transform="translate(441,187)"/>
<path d="M0 0 C10.89 0 21.78 0 33 0 C33.54407326 12.79618465 33.98344061 25.58460409 34.24349213 38.38977242 C34.36836663 44.337323 34.53733671 50.27650705 34.81054688 56.21923828 C36.59009635 95.93090653 36.59009635 95.93090653 30.6796875 103.5032959 C25.13686442 108.61731064 19.00566152 111.21008033 11.7956543 113.17718506 C8.11010622 114.26191289 5.26234021 116.00430078 2 118 C1.34 118 0.68 118 0 118 C0 79.06 0 40.12 0 0 Z " fill="#0076BF" transform="translate(408,530)"/>
<path d="M0 0 C1.08113571 -0.00274933 2.16227142 -0.00549866 3.27616882 -0.0083313 C4.46227753 -0.00114075 5.64838623 0.0060498 6.87043762 0.01345825 C8.74378029 0.01302017 8.74378029 0.01302017 10.65496826 0.01257324 C14.0803955 0.0137288 17.5055824 0.02376718 20.93096709 0.03772116 C24.51041822 0.0502139 28.08987247 0.05139786 31.66934204 0.05377197 C38.44788921 0.05999103 45.22637195 0.07640759 52.00489074 0.09647095 C59.72185399 0.11881672 67.43882031 0.12982005 75.15580785 0.13986182 C91.03053073 0.16077346 106.90518526 0.19636001 122.77986145 0.24050903 C122.77986145 6.51050903 122.77986145 12.78050903 122.77986145 19.24050903 C70.63986145 19.24050903 18.49986145 19.24050903 -35.22013855 19.24050903 C-31.76128534 16.47342646 -28.7814481 14.2666007 -25.02482605 12.07644653 C-24.06189636 11.51183716 -23.09896667 10.94722778 -22.1068573 10.36550903 C-21.11299011 9.78800903 -20.11912292 9.21050903 -19.09513855 8.61550903 C-17.11297197 7.45733191 -15.13118406 6.29850639 -13.14982605 5.13894653 C-12.27568054 4.63025024 -11.40153503 4.12155396 -10.50090027 3.59744263 C-4.43962771 -0.00869663 -4.43962771 -0.00869663 0 0 Z " fill="#004F80" transform="translate(444.2201385498047,451.7594909667969)"/>
<path d="M0 0 C0.65421936 -0.00043808 1.30843872 -0.00087616 1.98248291 -0.00132751 C4.13080372 0.00075161 6.27833031 0.02403956 8.42651367 0.04760742 C9.92151971 0.05320653 11.41653128 0.05747514 12.9115448 0.06047058 C16.83583928 0.07189466 20.75979774 0.10134044 24.68395996 0.13458252 C28.69249934 0.16533624 32.70109331 0.17898721 36.7097168 0.1940918 C44.56729243 0.22621284 52.42459556 0.27737926 60.28198242 0.34057617 C49.27925604 12.03934186 33.41581149 20.2597829 17.41165161 20.86767578 C10.72076932 20.96970608 4.05161854 20.76110459 -2.63061523 20.43920898 C-6.49223798 20.27178082 -10.35572151 20.20168939 -14.2199707 20.12182617 C-21.72413373 19.95316291 -29.2195242 19.68239225 -36.71801758 19.34057617 C-34.26562911 16.79848567 -31.84933069 15.09458072 -28.78833008 13.30932617 C-27.82797852 12.74600586 -26.86762695 12.18268555 -25.87817383 11.60229492 C-24.87657227 11.02092773 -23.8749707 10.43956055 -22.84301758 9.84057617 C-20.866433 8.68436392 -18.88986979 7.52811513 -16.91333008 6.37182617 C-15.59872803 5.60708984 -15.59872803 5.60708984 -14.25756836 4.8269043 C-11.72595069 3.39206262 -11.72595069 3.39206262 -9.47917175 1.76896667 C-6.08992549 0.0156538 -3.80583637 -0.0215019 0 0 Z " fill="#004F80" transform="translate(603.718017578125,348.659423828125)"/>
<path d="M0 0 C0.65421936 -0.00043808 1.30843872 -0.00087616 1.98248291 -0.00132751 C4.13080372 0.00075161 6.27833031 0.02403956 8.42651367 0.04760742 C9.92151971 0.05320653 11.41653128 0.05747514 12.9115448 0.06047058 C16.83583928 0.07189466 20.75979774 0.10134044 24.68395996 0.13458252 C28.69249934 0.16533624 32.70109331 0.17898721 36.7097168 0.1940918 C44.56729243 0.22621284 52.42459556 0.27737926 60.28198242 0.34057617 C39.19336287 17.30396461 24.50461763 21.58111243 -2.02972412 20.37054443 C-5.84442226 20.21382703 -9.66075809 20.14791848 -13.4777832 20.07299805 C-20.89545699 19.91469103 -28.30536774 19.6606814 -35.71801758 19.34057617 C-35.71801758 18.68057617 -35.71801758 18.02057617 -35.71801758 17.34057617 C-33.59423828 15.87597656 -33.59423828 15.87597656 -30.64379883 14.18823242 C-29.58354492 13.57657227 -28.52329102 12.96491211 -27.4309082 12.3347168 C-26.3087793 11.69727539 -25.18665039 11.05983398 -24.03051758 10.40307617 C-21.83906268 9.14404627 -19.64765478 7.88493454 -17.45629883 6.62573242 C-16.47701416 6.06764893 -15.49772949 5.50956543 -14.48876953 4.93457031 C-11.75693613 3.41758237 -11.75693613 3.41758237 -9.46472168 1.76223755 C-6.08426287 0.01255227 -3.79656377 -0.02144951 0 0 Z " fill="#004F81" transform="translate(379.718017578125,186.659423828125)"/>
</svg>